<?xml version="1.0" encoding="utf-8"?>
<!-- Generator: Adobe Illustrator 16.0.0, SVG Export Plug-In . SVG Version: 6.00 Build 0)  -->
<!DOCTYPE svg PUBLIC "-//W3C//DTD SVG 1.1//EN" "http://www.w3.org/Graphics/SVG/1.1/DTD/svg11.dtd">
<svg version="1.1" id="OBJECTS" xmlns="http://www.w3.org/2000/svg" xmlns:xlink="http://www.w3.org/1999/xlink" x="0px" y="0px"
	 width="89.958px" height="135.958px" viewBox="0 0 89.958 135.958" enable-background="new 0 0 89.958 135.958"
	 xml:space="preserve">
<g>
	<path fill="#B14E17" d="M76.972,76.324H13.063l31.953-47.979L76.972,76.324z M16.799,74.324h56.438l-28.22-42.37L16.799,74.324z"/>
	<g>
		<path fill="#B14E17" d="M22.509,53.522c-2.384,0-4.324-1.939-4.324-4.324c0-2.385,1.94-4.325,4.324-4.325s4.324,1.94,4.324,4.325
			C26.833,51.583,24.894,53.522,22.509,53.522z M22.509,45.874c-1.833,0-3.324,1.492-3.324,3.325c0,1.833,1.491,3.324,3.324,3.324
			c1.833,0,3.324-1.491,3.324-3.324C25.833,47.366,24.342,45.874,22.509,45.874z"/>
		<path fill="#B14E17" d="M67.459,53.522c-2.385,0-4.326-1.939-4.326-4.324c0-2.385,1.94-4.325,4.326-4.325
			c2.384,0,4.324,1.94,4.324,4.325C71.783,51.583,69.843,53.522,67.459,53.522z M67.459,45.874c-1.834,0-3.326,1.492-3.326,3.325
			c0,1.833,1.492,3.324,3.326,3.324c1.833,0,3.324-1.491,3.324-3.324C70.783,47.366,69.292,45.874,67.459,45.874z"/>
	</g>
	<g>
		<path fill="#B14E17" d="M29.223,43.866c-2.384,0-4.323-1.94-4.323-4.324s1.939-4.324,4.323-4.324c2.385,0,4.325,1.94,4.325,4.324
			S31.608,43.866,29.223,43.866z M29.223,36.217c-1.833,0-3.323,1.491-3.323,3.324s1.491,3.324,3.323,3.324
			c1.833,0,3.325-1.491,3.325-3.324S31.057,36.217,29.223,36.217z"/>
		<path fill="#B14E17" d="M60.745,43.866c-2.384,0-4.324-1.94-4.324-4.324s1.94-4.324,4.324-4.324s4.324,1.94,4.324,4.324
			S63.129,43.866,60.745,43.866z M60.745,36.217c-1.833,0-3.324,1.491-3.324,3.324s1.491,3.324,3.324,3.324s3.324-1.491,3.324-3.324
			S62.578,36.217,60.745,36.217z"/>
	</g>
	<g>
		<g>
			<path fill="#B14E17" d="M36.472,34.97c-0.122,0-0.243-0.044-0.339-0.133l-6.756-6.248c-0.203-0.188-0.215-0.504-0.028-0.707
				c0.188-0.203,0.504-0.216,0.707-0.028l6.756,6.248c0.203,0.188,0.215,0.504,0.028,0.707C36.741,34.916,36.606,34.97,36.472,34.97
				z"/>
			<path fill="#B14E17" d="M39.111,32.733c-0.167,0-0.331-0.084-0.426-0.237l-8.83-14.277c-0.145-0.235-0.073-0.543,0.162-0.688
				c0.235-0.145,0.543-0.073,0.688,0.162l8.83,14.277c0.145,0.235,0.073,0.543-0.162,0.688
				C39.292,32.709,39.201,32.733,39.111,32.733z"/>
			<path fill="#B14E17" d="M41.405,29.47c-0.204,0-0.396-0.126-0.47-0.329L35.184,13.37c-0.095-0.26,0.039-0.546,0.298-0.641
				c0.259-0.093,0.546,0.039,0.641,0.298l5.751,15.771c0.095,0.26-0.039,0.546-0.298,0.641C41.52,29.46,41.462,29.47,41.405,29.47z"
				/>
		</g>
		<g>
			<path fill="#B14E17" d="M53.494,34.97c-0.134,0-0.269-0.054-0.367-0.161c-0.188-0.203-0.175-0.519,0.028-0.707l6.758-6.248
				c0.202-0.188,0.518-0.175,0.707,0.028c0.188,0.203,0.175,0.519-0.028,0.707l-6.758,6.248
				C53.737,34.926,53.615,34.97,53.494,34.97z"/>
			<path fill="#B14E17" d="M50.857,32.733c-0.09,0-0.181-0.024-0.263-0.075c-0.235-0.146-0.307-0.454-0.162-0.688l8.83-14.277
				c0.146-0.235,0.454-0.307,0.688-0.162c0.235,0.146,0.307,0.454,0.162,0.688l-8.83,14.277
				C51.188,32.649,51.025,32.733,50.857,32.733z"/>
			<path fill="#B14E17" d="M48.564,29.47c-0.057,0-0.115-0.01-0.171-0.03c-0.259-0.095-0.393-0.381-0.298-0.641l5.75-15.771
				c0.094-0.26,0.381-0.392,0.641-0.298c0.259,0.095,0.393,0.381,0.298,0.641l-5.75,15.771C48.96,29.344,48.768,29.47,48.564,29.47z
				"/>
		</g>
	</g>
	<path fill="#B14E17" d="M44.983,30.65c-0.276,0-0.5-0.224-0.5-0.5V18.804c0-0.276,0.224-0.5,0.5-0.5s0.5,0.224,0.5,0.5V30.15
		C45.483,30.426,45.26,30.65,44.983,30.65z"/>
	<circle fill="#B14E17" cx="44.965" cy="15.054" r="1.855"/>
	<g>
		<path fill="#B14E17" d="M14.442,128.628l-7.147-8.083V16.766l6.718-9.302l61.704-0.133l6.957,9.681v103.532l-6.986,7.956
			L14.442,128.628z M8.295,120.167l6.598,7.461l60.342-0.126l6.439-7.333V17.334l-6.469-9.002L14.525,8.463l-6.23,8.626V120.167z"/>
		<g>
			<circle fill="#B14E17" cx="7.795" cy="9.686" r="1.855"/>
			<circle fill="#B14E17" cx="82.174" cy="9.686" r="1.855"/>
		</g>
		<g>
			<circle fill="#B14E17" cx="7.795" cy="126.272" r="1.855"/>
			<circle fill="#B14E17" cx="82.174" cy="126.272" r="1.855"/>
		</g>
	</g>
	<path fill="#B14E17" d="M44.002,69.103c-9.279,0-15.111-7.597-15.355-7.921l-0.259-0.344l0.302-0.307
		c0.311-0.315,7.697-7.725,15.693-7.725c7.972,0,15.94,6.653,16.275,6.937l0.336,0.284l-0.239,0.37
		C60.699,60.483,54.995,69.103,44.002,69.103z M29.725,60.921c1.249,1.471,6.597,7.182,14.277,7.182
		c9.155,0,14.454-6.287,15.653-7.885c-1.636-1.285-8.587-6.412-15.271-6.412C37.703,53.806,31.222,59.513,29.725,60.921z"/>
	<path fill="#B14E17" d="M44.691,66.476c-3.051,0-5.533-2.481-5.533-5.532c0-3.052,2.482-5.534,5.533-5.534
		c3.05,0,5.532,2.482,5.532,5.534C50.224,63.995,47.742,66.476,44.691,66.476z M44.691,56.41c-2.5,0-4.533,2.034-4.533,4.534
		c0,2.499,2.033,4.532,4.533,4.532c2.499,0,4.532-2.033,4.532-4.532C49.224,58.444,47.19,56.41,44.691,56.41z"/>
	<g>
		<rect x="44.441" y="55.834" fill="#B14E17" width="0.5" height="10.066"/>
		<rect x="39.659" y="60.617" fill="#B14E17" width="10.065" height="0.5"/>
		
			<rect x="39.661" y="60.617" transform="matrix(0.6476 0.7619 -0.7619 0.6476 62.1242 -12.6051)" fill="#B14E17" width="10.061" height="0.5"/>
		
			<rect x="44.441" y="55.917" transform="matrix(0.7264 0.6873 -0.6873 0.7264 54.0638 -14.0611)" fill="#B14E17" width="0.5" height="9.9"/>
	</g>
	<circle fill="#B14E17" cx="44.691" cy="60.802" r="1.379"/>
	<rect x="43.883" y="37.752" fill="#B14E17" width="1" height="13.385"/>
	<g>
		<rect x="45.289" y="94.744" fill="#B14E17" width="1" height="22.885"/>
		<path fill="#B14E17" d="M45.789,95.061c-4.865,0-8.824-3.958-8.824-8.824c0-4.865,3.958-8.824,8.824-8.824
			s8.824,3.958,8.824,8.824C54.613,91.102,50.654,95.061,45.789,95.061z M45.789,78.413c-4.314,0-7.824,3.51-7.824,7.824
			c0,4.314,3.51,7.824,7.824,7.824s7.824-3.51,7.824-7.824C53.613,81.922,50.103,78.413,45.789,78.413z"/>
		<g>
			<path fill="#B14E17" d="M46.059,99.637c0,0-0.066,2.159,1.774,3.111c1.841,0.951,3.428,1.27,3.428,1.27s-1.584-3.239-2.601-3.874
				C47.641,99.51,46.059,99.637,46.059,99.637z"/>
			<path fill="#B14E17" d="M45.519,99.637c0,0,0.068,2.159-1.774,3.111c-1.841,0.951-3.429,1.27-3.429,1.27s1.585-3.239,2.602-3.874
				C43.935,99.51,45.519,99.637,45.519,99.637z"/>
		</g>
		<g>
			<path fill="#B14E17" d="M46.059,107.559c0,0-0.066,2.157,1.774,3.111c1.841,0.952,3.428,1.269,3.428,1.269
				s-1.584-3.239-2.601-3.872C47.641,107.432,46.059,107.559,46.059,107.559z"/>
			<path fill="#B14E17" d="M45.519,107.559c0,0,0.068,2.157-1.774,3.111c-1.841,0.952-3.429,1.269-3.429,1.269
				s1.585-3.239,2.602-3.872C43.935,107.432,45.519,107.559,45.519,107.559z"/>
		</g>
		<circle fill="#B14E17" cx="45.789" cy="120.08" r="2.45"/>
	</g>
	<g>
		<g>
			<path fill="#B14E17" d="M26.404,119.603h-8.276l4.138-6.212L26.404,119.603z M19.061,119.103h6.409l-3.205-4.81L19.061,119.103z"
				/>
			<g>
				<circle fill="#B14E17" cx="22.265" cy="79.74" r="0.956"/>
				<circle fill="#B14E17" cx="22.265" cy="82.625" r="0.956"/>
				<circle fill="#B14E17" cx="22.265" cy="85.512" r="0.956"/>
				<circle fill="#B14E17" cx="22.265" cy="88.396" r="0.956"/>
				<circle fill="#B14E17" cx="22.265" cy="91.283" r="0.956"/>
				<circle fill="#B14E17" cx="22.265" cy="94.169" r="0.956"/>
				<circle fill="#B14E17" cx="22.265" cy="97.055" r="0.956"/>
				<circle fill="#B14E17" cx="22.265" cy="99.941" r="0.956"/>
				<circle fill="#B14E17" cx="22.265" cy="102.827" r="0.956"/>
				<circle fill="#B14E17" cx="22.265" cy="105.712" r="0.956"/>
				<circle fill="#B14E17" cx="22.265" cy="108.598" r="0.956"/>
				<circle fill="#B14E17" cx="22.265" cy="111.484" r="0.956"/>
			</g>
		</g>
		<g>
			<path fill="#B14E17" d="M71.596,119.603h-8.274l4.138-6.212L71.596,119.603z M64.255,119.103h6.407l-3.203-4.81L64.255,119.103z"
				/>
			<g>
				<circle fill="#B14E17" cx="67.459" cy="79.74" r="0.956"/>
				<circle fill="#B14E17" cx="67.459" cy="82.625" r="0.956"/>
				<circle fill="#B14E17" cx="67.459" cy="85.512" r="0.956"/>
				<circle fill="#B14E17" cx="67.459" cy="88.396" r="0.956"/>
				<circle fill="#B14E17" cx="67.459" cy="91.283" r="0.956"/>
				<circle fill="#B14E17" cx="67.459" cy="94.169" r="0.956"/>
				<circle fill="#B14E17" cx="67.459" cy="97.055" r="0.956"/>
				<circle fill="#B14E17" cx="67.459" cy="99.941" r="0.956"/>
				<circle fill="#B14E17" cx="67.459" cy="102.827" r="0.956"/>
				<circle fill="#B14E17" cx="67.459" cy="105.712" r="0.956"/>
				<circle fill="#B14E17" cx="67.459" cy="108.598" r="0.956"/>
				<circle fill="#B14E17" cx="67.459" cy="111.484" r="0.956"/>
			</g>
		</g>
	</g>
	<rect x="29.216" y="78.784" fill="#B14E17" width="1" height="22.984"/>
	<rect x="59.188" y="78.784" fill="#B14E17" width="1" height="22.984"/>
	<g>
		<path fill="#B14E17" d="M16.953,60.62c-1.391,0-2.522-1.131-2.522-2.521c0-1.391,1.131-2.522,2.522-2.522s2.522,1.131,2.522,2.522
			C19.475,59.489,18.344,60.62,16.953,60.62z M16.953,56.577c-0.839,0-1.522,0.683-1.522,1.522c0,0.839,0.683,1.521,1.522,1.521
			s1.522-0.682,1.522-1.521C18.475,57.26,17.792,56.577,16.953,56.577z"/>
		<path fill="#B14E17" d="M71.283,60.62c-1.391,0-2.522-1.131-2.522-2.521c0-1.391,1.131-2.522,2.522-2.522
			c1.39,0,2.521,1.131,2.521,2.522C73.805,59.489,72.673,60.62,71.283,60.62z M71.283,56.577c-0.839,0-1.522,0.683-1.522,1.522
			c0,0.839,0.683,1.521,1.522,1.521c0.839,0,1.521-0.682,1.521-1.521C72.805,57.26,72.122,56.577,71.283,56.577z"/>
	</g>
	<path fill="#B14E17" d="M46.964,92.029c-3.066,0-5.562-2.495-5.562-5.562s2.495-5.562,5.562-5.562c0.492,0,0.992,0.07,1.487,0.208
		l0.866,0.241l-0.866,0.24c-2.183,0.606-3.707,2.609-3.707,4.873c0,2.264,1.524,4.268,3.707,4.874l0.868,0.241l-0.868,0.241
		C47.957,91.959,47.456,92.029,46.964,92.029z M46.964,81.405c-2.791,0-5.062,2.271-5.062,5.062c0,2.954,2.572,5.346,5.553,5.037
		c-1.928-0.901-3.211-2.859-3.211-5.037s1.284-4.136,3.212-5.037C47.292,81.414,47.127,81.405,46.964,81.405z"/>
	<g>
		<circle fill="#B14E17" cx="29.716" cy="104.258" r="0.957"/>
		<circle fill="#B14E17" cx="29.716" cy="107.143" r="0.957"/>
		<circle fill="#B14E17" cx="29.716" cy="110.029" r="0.957"/>
		<circle fill="#B14E17" cx="29.716" cy="112.915" r="0.957"/>
		<circle fill="#B14E17" cx="29.716" cy="115.801" r="0.957"/>
		<circle fill="#B14E17" cx="29.716" cy="118.687" r="0.957"/>
		<circle fill="#B14E17" cx="29.716" cy="121.572" r="0.957"/>
	</g>
	<g>
		<circle fill="#B14E17" cx="12.985" cy="20.75" r="0.955"/>
		<circle fill="#B14E17" cx="14.885" cy="22.923" r="0.956"/>
		<circle fill="#B14E17" cx="16.785" cy="25.096" r="0.957"/>
		<circle fill="#B14E17" cx="18.685" cy="27.267" r="0.956"/>
		<circle fill="#B14E17" cx="20.584" cy="29.44" r="0.956"/>
		<circle fill="#B14E17" cx="22.484" cy="31.613" r="0.957"/>
		<circle fill="#B14E17" cx="24.384" cy="33.785" r="0.957"/>
	</g>
	<g>
		<circle fill="#B14E17" cx="76.982" cy="20.75" r="0.955"/>
		<circle fill="#B14E17" cx="75.083" cy="22.923" r="0.956"/>
		<circle fill="#B14E17" cx="73.183" cy="25.096" r="0.956"/>
		<circle fill="#B14E17" cx="71.283" cy="27.267" r="0.956"/>
		<circle fill="#B14E17" cx="69.384" cy="29.44" r="0.956"/>
		<circle fill="#B14E17" cx="67.483" cy="31.613" r="0.957"/>
		<circle fill="#B14E17" cx="65.584" cy="33.785" r="0.957"/>
	</g>
	<g>
		<circle fill="#B14E17" cx="59.687" cy="104.258" r="0.956"/>
		<circle fill="#B14E17" cx="59.687" cy="107.143" r="0.956"/>
		<circle fill="#B14E17" cx="59.687" cy="110.029" r="0.956"/>
		<circle fill="#B14E17" cx="59.687" cy="112.915" r="0.956"/>
		<circle fill="#B14E17" cx="59.687" cy="115.801" r="0.956"/>
		<circle fill="#B14E17" cx="59.687" cy="118.687" r="0.956"/>
		<circle fill="#B14E17" cx="59.687" cy="121.572" r="0.956"/>
	</g>
</g>
<path fill="none" stroke="#B14E17" stroke-width="0.9796" stroke-miterlimit="10" d="M89.5,133.581c0,1.06-0.896,1.919-2,1.919h-85
	c-1.104,0-2-0.859-2-1.919V2.419c0-1.06,0.896-1.919,2-1.919h85c1.104,0,2,0.859,2,1.919V133.581z"/>
</svg>
