<?xml version="1.0" encoding="utf-8"?>
<!-- Generator: Adobe Illustrator 16.0.0, SVG Export Plug-In . SVG Version: 6.00 Build 0)  -->
<!DOCTYPE svg PUBLIC "-//W3C//DTD SVG 1.1//EN" "http://www.w3.org/Graphics/SVG/1.1/DTD/svg11.dtd">
<svg version="1.1" id="OBJECTS" xmlns="http://www.w3.org/2000/svg" xmlns:xlink="http://www.w3.org/1999/xlink" x="0px" y="0px"
	 width="70.692px" height="135.958px" viewBox="0 0 70.692 135.958" enable-background="new 0 0 70.692 135.958"
	 xml:space="preserve">
<g>
	<path fill="#B14E17" d="M43.028,110.933c-9.855,0-17.874-8.016-17.874-17.87c0-9.856,8.018-17.875,17.874-17.875
		c1.579,0,3.187,0.225,4.779,0.667l2.709,0.753l-2.709,0.752c-7.032,1.954-11.942,8.411-11.942,15.703
		c0,7.29,4.911,13.747,11.942,15.701l2.719,0.756l-2.721,0.75C46.212,110.71,44.605,110.933,43.028,110.933z M43.028,76.75
		c-8.994,0-16.311,7.318-16.311,16.313c0,8.992,7.317,16.307,16.311,16.307c0.551,0,1.106-0.03,1.665-0.09
		c-6.235-2.882-10.391-9.197-10.391-16.217c0-7.025,4.158-13.342,10.398-16.222C44.139,76.781,43.581,76.75,43.028,76.75z"/>
	<circle fill="#B14E17" cx="9.885" cy="121.063" r="1.027"/>
	<circle fill="#B14E17" cx="14.676" cy="124.925" r="1.027"/>
	<circle fill="#B14E17" cx="19.559" cy="127.817" r="1.027"/>
	<circle fill="#B14E17" cx="24.624" cy="129.869" r="1.027"/>
	<circle fill="#B14E17" cx="30.184" cy="130.896" r="1.026"/>
	<circle fill="#B14E17" cx="35.741" cy="131.677" r="1.027"/>
	<path fill="#B14E17" d="M42.343,130.896c0,0.567-0.461,1.026-1.025,1.026c-0.567,0-1.029-0.459-1.029-1.026
		s0.462-1.027,1.029-1.027C41.882,129.869,42.343,130.329,42.343,130.896z"/>
	<circle fill="#B14E17" cx="46.951" cy="129.869" r="1.027"/>
	<circle fill="#B14E17" cx="52.217" cy="127.817" r="1.027"/>
	<circle fill="#B14E17" cx="56.796" cy="124.925" r="1.027"/>
	<circle fill="#B14E17" cx="60.545" cy="121.063" r="1.027"/>
	<path fill="#B14E17" d="M35.37,126.732c-19.476,0-35.321-15.845-35.321-35.322c0-15.584,10.345-29.417,25.232-33.85V25.036h20.178
		v32.525c14.888,4.432,25.233,18.265,25.233,33.85C70.692,110.887,54.847,126.732,35.37,126.732z M26.844,26.599v32.143l-0.57,0.16
		C11.753,62.958,1.611,76.327,1.611,91.411c0,18.615,15.144,33.759,33.758,33.759c18.616,0,33.759-15.144,33.759-33.759
		c0-15.084-10.141-28.453-24.663-32.509l-0.571-0.16V26.599H26.844z"/>
	<polygon fill="#B14E17" points="46.505,94.75 44.085,89.447 46.558,84.804 48.926,89.214 	"/>
	<polygon fill="#B14E17" points="48.278,103.542 46.951,100.636 48.307,98.09 49.606,100.508 	"/>
	<polygon fill="#B14E17" points="60.544,95.229 59.216,92.322 60.574,89.777 61.873,92.194 	"/>
	<polygon fill="#B14E17" points="55.136,94.75 53.811,91.842 55.167,89.298 56.464,91.716 	"/>
	<polygon fill="#B14E17" points="35.475,49.011 33.658,45.036 35.514,41.555 37.291,44.86 	"/>
	<polygon fill="#B14E17" points="56.796,84.543 54.374,79.24 56.85,74.599 59.216,79.01 	"/>
	<polygon fill="#B14E17" points="56.796,108.692 54.374,103.388 56.85,98.745 59.216,103.156 	"/>
	<g>
		<path fill="#B14E17" d="M35.491,40.38l-9.808-21.485l9.982-18.737l9.601,17.872L35.491,40.38z M27.426,18.948l8.033,17.601
			l8.069-18.45L35.671,3.472L27.426,18.948z"/>
		<rect x="35.084" y="3.326" fill="#B14E17" width="0.782" height="34.191"/>
		<rect x="26.555" y="18.531" fill="#B14E17" width="17.842" height="0.781"/>
		
			<rect x="32.846" y="3.111" transform="matrix(0.9769 0.2139 -0.2139 0.9769 3.1419 -6.852)" fill="#B14E17" width="0.781" height="15.965"/>
		
			<rect x="29.224" y="9.662" transform="matrix(0.2861 0.9582 -0.9582 0.2861 36.8668 -29.3778)" fill="#B14E17" width="17.852" height="0.783"/>
	</g>
	<path fill="#B14E17" d="M35.74,70.18c-0.14,0-0.276-0.076-0.346-0.209l-4.274-8.179c-0.1-0.191-0.026-0.427,0.166-0.527
		s0.426-0.026,0.527,0.166l4.274,8.178c0.1,0.192,0.026,0.428-0.166,0.527C35.863,70.166,35.801,70.18,35.74,70.18z"/>
	<path fill="#B14E17" d="M30.184,72.499c-0.115,0-0.229-0.051-0.306-0.148l-5.122-6.463c-0.134-0.169-0.106-0.415,0.064-0.549
		c0.167-0.133,0.415-0.105,0.549,0.064l5.121,6.463c0.134,0.169,0.106,0.415-0.063,0.549C30.355,72.471,30.27,72.499,30.184,72.499z
		"/>
	<path fill="#B14E17" d="M25.656,77.273c-0.072,0-0.145-0.02-0.209-0.061l-8.369-5.333c-0.183-0.116-0.236-0.357-0.12-0.54
		c0.117-0.183,0.36-0.234,0.54-0.12l8.369,5.333c0.183,0.116,0.236,0.357,0.12,0.54C25.912,77.209,25.785,77.273,25.656,77.273z"/>
	<path fill="#B14E17" d="M22.477,82.137c-0.039,0-0.08-0.005-0.119-0.018L8.74,77.77c-0.206-0.066-0.319-0.286-0.253-0.491
		c0.066-0.205,0.282-0.321,0.492-0.253l13.618,4.35c0.206,0.065,0.319,0.285,0.253,0.491C22.796,82.031,22.643,82.137,22.477,82.137
		z"/>
	<path fill="#B14E17" d="M21.433,88.281c-0.017,0-0.033-0.001-0.05-0.003l-9.958-1.252c-0.213-0.027-0.365-0.222-0.339-0.437
		c0.027-0.215,0.226-0.362,0.437-0.338l9.958,1.252c0.214,0.027,0.366,0.223,0.339,0.437C21.795,88.137,21.626,88.281,21.433,88.281
		z"/>
	<path fill="#B14E17" d="M6.809,96.715c-0.196,0-0.365-0.147-0.388-0.347c-0.024-0.215,0.13-0.408,0.344-0.432l13.883-1.574
		c0.208-0.03,0.408,0.129,0.433,0.344c0.025,0.214-0.129,0.408-0.344,0.432L6.854,96.712C6.839,96.714,6.825,96.715,6.809,96.715z"
		/>
	<path fill="#B14E17" d="M14.676,104.11c-0.147,0-0.288-0.083-0.354-0.225c-0.092-0.195-0.007-0.428,0.188-0.519l6.756-3.166
		c0.194-0.091,0.427-0.008,0.52,0.188c0.092,0.196,0.007,0.428-0.188,0.52l-6.756,3.166C14.788,104.098,14.731,104.11,14.676,104.11
		z"/>
	<path fill="#B14E17" d="M15.401,112.509c-0.115,0-0.229-0.051-0.307-0.149c-0.134-0.169-0.104-0.415,0.064-0.549l8.314-6.55
		c0.168-0.134,0.416-0.105,0.549,0.065c0.134,0.17,0.105,0.415-0.065,0.548l-8.314,6.551
		C15.572,112.481,15.486,112.509,15.401,112.509z"/>
	<path fill="#B14E17" d="M24.268,113.854c-0.095,0-0.19-0.035-0.265-0.104c-0.159-0.146-0.168-0.394-0.022-0.552l2.838-3.079
		c0.146-0.158,0.394-0.168,0.552-0.022c0.159,0.146,0.169,0.394,0.022,0.552l-2.838,3.079
		C24.478,113.811,24.373,113.854,24.268,113.854z"/>
	<circle fill="#B14E17" cx="35.474" cy="54.777" r="1.922"/>
	<rect x="35.083" y="47.621" fill="#B14E17" width="0.782" height="7.156"/>
	<path fill="#B14E17" d="M35.313,135.801c-14.18,0-27.237-7.139-34.925-19.097L0,116.101h70.627l-0.387,0.603
		C62.551,128.662,49.494,135.801,35.313,135.801z M1.439,116.883c7.591,11.371,20.199,18.136,33.873,18.136
		c13.675,0,26.284-6.765,33.875-18.136H1.439z"/>
	<path fill="#B14E17" d="M50.827,26.248H19.912v-8.13h30.915V26.248z M21.475,24.685h27.788v-5.004H21.475V24.685z"/>
</g>
</svg>
