<?xml version="1.0" encoding="utf-8"?>
<!-- Generator: Adobe Illustrator 16.0.0, SVG Export Plug-In . SVG Version: 6.00 Build 0)  -->
<!DOCTYPE svg PUBLIC "-//W3C//DTD SVG 1.1//EN" "http://www.w3.org/Graphics/SVG/1.1/DTD/svg11.dtd">
<svg version="1.1" id="OBJECTS" xmlns="http://www.w3.org/2000/svg" xmlns:xlink="http://www.w3.org/1999/xlink" x="0px" y="0px"
	 width="179.417px" height="136.588px" viewBox="0 0 179.417 136.588" enable-background="new 0 0 179.417 136.588"
	 xml:space="preserve">
<g>
	<g>
		<g>
				<path fill="none" stroke="#B14E17" stroke-width="1.0871" stroke-linecap="round" stroke-linejoin="round" stroke-miterlimit="10" d="
				M162.6,73.591c0,1.945-0.818,3.801-2.255,5.113l0,0c0.065,0.223,0.111,0.473,0.14,0.732c0.186,1.66-0.492,3.293-1.688,4.453
				l-2.348,2.272c-0.102,5.511-3.283,6.902-3.283,6.902l-6.263,14.881l2.709,8.321c1.002,3.08-0.361,6.225-2.885,7.746
				c-0.993,0.612-2.171,0.965-3.451,0.965h-5.288c-2.969,0-5.575-1.957-6.401-4.806c0-0.009-0.009-0.027-0.009-0.037l-4.991-17.636
				c-3.183-3.794-2.663-7.589-2.663-7.589l0.891-6.642c0,0,0-0.01,0-0.019l0.278-2.088l1.8-13.414
				c-0.102-3.896-0.612-7.283-0.612-7.283c-0.501-7.235,0.297-10.696,1.123-12.348c0.631-1.243,2.198-1.596,3.274-0.705
				c3.915,3.201,3.191,14.695,3.191,14.695s-0.121-0.362-0.231-0.687c0.38,1.41,1.363,6.429,1.363,6.429l2.507-1.94
				c2.534-1.961,5.504-3.283,8.658-3.854l4.939-0.894c1.328-0.24,2.678,0.282,3.498,1.354l0,0c-0.418-1.948,0.714-5.13,0.714-5.13
				c-3.794-1.132-5.845-4.824-5.845-4.824c-13.033,0.621-11.697-7.385-11.697-7.385l12.412,0.408l10.195,5.14
				c1.364,0.687,2.218,2.087,2.218,3.608V73.591z"/>

				<path fill="none" stroke="#B14E17" stroke-width="1.0871" stroke-linecap="round" stroke-linejoin="round" stroke-miterlimit="10" d="
				M149.694,66.417l1.411-0.255c0,0,2.168-0.463,3.498,1.354l5.742,11.188"/>

				<path fill="none" stroke="#B14E17" stroke-width="1.0871" stroke-linecap="round" stroke-linejoin="round" stroke-miterlimit="10" d="
				M135.001,72.852l-3.667,2.619c-0.718,0.513-0.717,1.591,0.014,2.085c0.531,0.359,1.323,0.604,2.491,0.432
				c0.792-0.117,1.539-0.441,2.214-0.872l4.342-2.77c0.534-0.341,1.146-0.543,1.778-0.587l5.71-0.398
				c1.334-0.093,2.617,0.521,3.381,1.619l4.053,5.823"/>

				<path fill="none" stroke="#B14E17" stroke-width="1.0871" stroke-linecap="round" stroke-linejoin="round" stroke-miterlimit="10" d="
				M141.209,73.827l-7.763,4.867c-0.899,0.563-0.795,1.899,0.179,2.323c1.683,0.733,4.364,1.115,7.584-1.239l5.745,0.153
				c0,0-0.358,2.514,2.463,4.925"/>

				<path fill="none" stroke="#B14E17" stroke-width="1.0871" stroke-linecap="round" stroke-linejoin="round" stroke-miterlimit="10" d="
				M153.675,68.542c0,0-0.461,2.411-1.59,3.181"/>

				<path fill="none" stroke="#B14E17" stroke-width="1.0871" stroke-linecap="round" stroke-linejoin="round" stroke-miterlimit="10" d="
				M162.602,59.334c0,0-1.231,1.975-2.206,2.128"/>

				<line fill="none" stroke="#B14E17" stroke-width="1.0871" stroke-linecap="round" stroke-linejoin="round" stroke-miterlimit="10" x1="146.955" y1="79.931" x2="148.135" y2="78.084"/>

				<line fill="none" stroke="#B14E17" stroke-width="1.0871" stroke-linecap="round" stroke-linejoin="round" stroke-miterlimit="10" x1="141.209" y1="79.778" x2="140.491" y2="77.52"/>

				<path fill="none" stroke="#B14E17" stroke-width="1.0871" stroke-linecap="round" stroke-linejoin="round" stroke-miterlimit="10" d="
				M138.491,86.601c0,0-8.362,8.105-8.465,13.595"/>

				<path fill="none" stroke="#B14E17" stroke-width="1.0871" stroke-linecap="round" stroke-linejoin="round" stroke-miterlimit="10" d="
				M141.209,107.839c0,0,3.334,0.205,4.925-3.335"/>

				<path fill="none" stroke="#B14E17" stroke-width="1.0871" stroke-linecap="round" stroke-linejoin="round" stroke-miterlimit="10" d="
				M129.615,66.747c0.257,0,2.72,0.667,3.951-0.564"/>

				<path fill="none" stroke="#B14E17" stroke-width="1.0871" stroke-linecap="round" stroke-linejoin="round" stroke-miterlimit="10" d="
				M131.59,72.852c0,0,2.693,0.205,3.001-1.129"/>

				<path fill="none" stroke="#B14E17" stroke-width="1.0871" stroke-linecap="round" stroke-linejoin="round" stroke-miterlimit="10" d="
				M157.829,54.44l-1.076-6.423c-0.067-0.399-0.209-0.782-0.419-1.129l-6.916-11.436c0,0-7.695,0.872,0,13.646l-0.209,1.455"/>

				<path fill="none" stroke="#B14E17" stroke-width="1.0871" stroke-linecap="round" stroke-linejoin="round" stroke-miterlimit="10" d="
				M149.417,49.099c0,0,2.001,0.41,2.668,0.205"/>

				<path fill="none" stroke="#B14E17" stroke-width="1.0871" stroke-linecap="round" stroke-linejoin="round" stroke-miterlimit="10" d="
				M148.135,66.555l0.051-3.432c0-1.438,0.261-2.862,0.771-4.206l0.513-1.354"/>
			<path fill="#B14E17" d="M152.853,40.429c-0.124-0.486-0.396-0.964-0.602-1.421c-0.223-0.495-0.449-0.989-0.679-1.482
				c-0.459-0.985-0.933-1.964-1.418-2.937c-0.34-0.68-0.89-1.86-1.87-1.389c-0.488,0.234-0.585,0.764-0.563,1.3
				c-0.034,0.064-0.058,0.139-0.05,0.234c0.163,1.948,0.753,3.91,1.83,5.554c0.457,0.698,1.108,1.427,1.973,1.577
				C152.389,42.025,153.089,41.356,152.853,40.429z"/>
			<path fill="#B14E17" d="M144.067,51.487c-0.161-0.919-1.116-1.217-1.925-1.266c-0.987-0.061-1.977-0.087-2.964-0.124
				c-0.401-0.038-0.802-0.075-1.202-0.113c-0.508-0.047-1.037-0.144-1.547-0.094c-0.121,0.012-0.24,0.041-0.358,0.079
				c-0.089,0.003-0.178,0-0.266,0.007c-0.773,0.055-1.61,0.803-1.064,1.602c0.19,0.278,0.509,0.417,0.82,0.515
				c0.413,0.351,1.006,0.543,1.484,0.699c0.922,0.302,1.883,0.479,2.849,0.563c0.923,0.079,2.02,0.165,2.916-0.122
				C143.545,52.996,144.212,52.316,144.067,51.487z"/>
			<path fill="#B14E17" d="M129.746,51.955c-0.891-0.162-1.825,0.271-2.279,1.163c-0.455,0.919-0.909,2.385-1.133,4.75
				c-0.055-0.064-0.092-0.148-0.102-0.26c-0.093-1.66-0.176-3.33,0.028-4.991c0.147-1.104,0.361-3.2,1.854-3.274
				c1.216-0.056,1.634,1.476,1.847,2.403C129.867,51.837,129.84,51.863,129.746,51.955z"/>
			<path fill="#B14E17" d="M134.547,73c-0.346-0.027-0.483,0.273-0.428,0.54c-2.027,0.761-3.887,1.899-5.466,3.386
				c-0.322,0.304-0.042,0.748,0.328,0.792c0.769,0.091,1.495-0.236,2.145-0.613c0.732-0.425,1.451-0.875,2.175-1.313
				c0.359-0.218,0.719-0.435,1.078-0.652c0.297-0.179,0.601-0.356,0.805-0.645C135.6,73.909,135.292,73.057,134.547,73z"/>
			<path fill="#B14E17" d="M136.804,78.22c-0.299,0.469-0.899,0.705-1.37,0.955c-0.924,0.491-1.864,0.951-2.82,1.378
				c-0.254,0.114-0.51,0.226-0.767,0.335c-0.217,0.093-0.436,0.209-0.677,0.211c-0.546,0.004-0.873-0.575-0.628-1.055
				c0.216-0.422,0.764-0.616,1.158-0.829c0.477-0.257,0.954-0.508,1.435-0.756c0.914-0.471,1.837-0.923,2.767-1.361
				c0.009-0.02,0.009-0.039,0.021-0.059c0.116-0.198,0.435-0.317,0.635-0.166C136.986,77.198,137.099,77.756,136.804,78.22z"/>
		</g>
		<g>
			<g>

					<line fill="none" stroke="#B14E17" stroke-width="1.0871" stroke-linecap="round" stroke-linejoin="round" stroke-miterlimit="10" x1="118.216" y1="110.498" x2="118.216" y2="135.892"/>

					<path fill="none" stroke="#B14E17" stroke-width="1.0871" stroke-linecap="round" stroke-linejoin="round" stroke-miterlimit="10" d="
					M113.292,126.685c0.308-0.335,9.518-9.518,9.518-9.518"/>

					<path fill="none" stroke="#B14E17" stroke-width="1.0871" stroke-linecap="round" stroke-linejoin="round" stroke-miterlimit="10" d="
					M122.809,126.685c-0.308-0.335-9.518-9.518-9.518-9.518"/>

					<line fill="none" stroke="#B14E17" stroke-width="1.0871" stroke-linecap="round" stroke-linejoin="round" stroke-miterlimit="10" x1="110.598" y1="121.926" x2="124.834" y2="121.926"/>
			</g>
			<g>

					<line fill="none" stroke="#B14E17" stroke-width="1.0871" stroke-linecap="round" stroke-linejoin="round" stroke-miterlimit="10" x1="172.339" y1="59.578" x2="172.339" y2="84.971"/>

					<path fill="none" stroke="#B14E17" stroke-width="1.0871" stroke-linecap="round" stroke-linejoin="round" stroke-miterlimit="10" d="
					M167.415,75.765c0.308-0.336,9.518-9.518,9.518-9.518"/>

					<path fill="none" stroke="#B14E17" stroke-width="1.0871" stroke-linecap="round" stroke-linejoin="round" stroke-miterlimit="10" d="
					M176.932,75.765c-0.308-0.336-9.518-9.518-9.518-9.518"/>

					<line fill="none" stroke="#B14E17" stroke-width="1.0871" stroke-linecap="round" stroke-linejoin="round" stroke-miterlimit="10" x1="164.721" y1="71.006" x2="178.958" y2="71.006"/>
			</g>
		</g>
	</g>
	<g>
		<g>
			<g>
				<polygon fill="#B14E17" points="102.432,64.843 103.374,65.358 102.432,65.873 101.917,66.814 101.403,65.873 100.461,65.358
					101.403,64.843 101.917,63.902 				"/>
				<polygon fill="#B14E17" points="97.702,71.95 100.06,73.24 97.702,74.53 96.412,76.888 95.122,74.53 92.763,73.24 95.122,71.95
					96.412,69.591 				"/>
				<polygon fill="#B14E17" points="104.846,85.78 105.788,86.294 104.846,86.809 104.332,87.75 103.817,86.809 102.875,86.294
					103.817,85.78 104.332,84.838 				"/>
				<path fill="#B14E17" d="M108.262,76.324c-1.094,0-1.095,1.698,0,1.698C109.355,78.022,109.357,76.324,108.262,76.324z"/>
				<path fill="#B14E17" d="M106.992,71.908c-0.599,0-0.6,0.932,0,0.932S107.592,71.908,106.992,71.908z"/>
				<path fill="#B14E17" d="M88.681,64.892c-0.6,0-0.601,0.931,0,0.931C89.28,65.823,89.281,64.892,88.681,64.892z"/>
			</g>
			<g>
				<polygon fill="#B14E17" points="93.616,90.063 92.565,89.845 93.315,89.078 93.532,88.028 94.299,88.777 95.349,88.994
					94.6,89.761 94.383,90.812 				"/>
				<polygon fill="#B14E17" points="80.937,81.971 79.886,81.754 80.635,80.987 80.852,79.936 81.62,80.685 82.67,80.902
					81.921,81.669 81.705,82.72 				"/>
				<polygon fill="#B14E17" points="81.736,68.848 80.685,68.631 81.434,67.864 81.651,66.814 82.418,67.563 83.469,67.78
					82.72,68.547 82.503,69.598 				"/>
				<path fill="#B14E17" d="M88.855,89.016c1.045-0.319,0.55-1.944-0.497-1.624C87.312,87.711,87.808,89.336,88.855,89.016z"/>
				<path fill="#B14E17" d="M81.868,85.181c0.572-0.175,0.301-1.065-0.272-0.89C81.023,84.466,81.293,85.357,81.868,85.181z"/>
				<path fill="#B14E17" d="M82.2,74.526c0.035,0.05,0.08,0.088,0.136,0.115c0.054,0.031,0.111,0.047,0.172,0.048
					c0.062,0.012,0.122,0.007,0.183-0.014l0.113-0.053c0.069-0.044,0.123-0.102,0.162-0.174l0.042-0.111
					c0.019-0.082,0.016-0.163-0.009-0.243l-0.011-0.037c-0.017-0.063-0.047-0.115-0.091-0.16c-0.035-0.05-0.08-0.088-0.136-0.115
					c-0.054-0.03-0.111-0.047-0.172-0.048c-0.062-0.012-0.122-0.007-0.183,0.015c-0.038,0.017-0.076,0.034-0.113,0.052
					c-0.069,0.044-0.123,0.103-0.162,0.175c-0.014,0.037-0.027,0.074-0.042,0.111c-0.019,0.081-0.016,0.162,0.008,0.243l0.012,0.036
					C82.125,74.428,82.156,74.481,82.2,74.526z"/>
				<path fill="#B14E17" d="M106.225,83.638c0.573-0.176,0.302-1.065-0.272-0.89C105.38,82.923,105.652,83.814,106.225,83.638z"/>
			</g>

				<circle fill="none" stroke="#B14E17" stroke-width="1.4495" stroke-linecap="round" stroke-linejoin="round" stroke-miterlimit="10" stroke-dasharray="2.899" cx="94.14" cy="76.324" r="19.733"/>
			<g>

					<line fill="none" stroke="#B14E17" stroke-width="1.4495" stroke-linecap="round" stroke-linejoin="round" stroke-miterlimit="10" stroke-dasharray="2.899" x1="64.309" y1="103.883" x2="77.421" y2="91.426"/>

					<line fill="none" stroke="#B14E17" stroke-width="1.0871" stroke-linecap="round" stroke-linejoin="round" stroke-miterlimit="10" x1="108.44" y1="60.053" x2="115.529" y2="53.319"/>
			</g>
			<g>

					<line fill="none" stroke="#B14E17" stroke-width="1.0871" stroke-linecap="round" stroke-linejoin="round" stroke-miterlimit="10" x1="79.364" y1="104.539" x2="83.722" y2="95.785"/>

					<line fill="none" stroke="#B14E17" stroke-width="1.4495" stroke-linecap="round" stroke-linejoin="round" stroke-miterlimit="10" stroke-dasharray="0,2.899" x1="102.139" y1="55.695" x2="106.498" y2="46.942"/>
			</g>
			<g>

					<line fill="none" stroke="#B14E17" stroke-width="1.4495" stroke-linecap="round" stroke-linejoin="round" stroke-miterlimit="10" stroke-dasharray="0,2.899" x1="89.058" y1="116.02" x2="91.133" y2="97.726"/>

					<line fill="none" stroke="#B14E17" stroke-width="1.0871" stroke-linecap="round" stroke-linejoin="round" stroke-miterlimit="10" x1="94.728" y1="53.754" x2="95.83" y2="44.039"/>
			</g>
			<g>

					<line fill="none" stroke="#B14E17" stroke-width="1.0871" stroke-linecap="round" stroke-linejoin="round" stroke-miterlimit="10" x1="101.048" y1="106.522" x2="98.761" y2="97.015"/>

					<line fill="none" stroke="#B14E17" stroke-width="1.0871" stroke-linecap="round" stroke-linejoin="round" stroke-miterlimit="10" x1="87.1" y1="54.465" x2="83.377" y2="38.997"/>
			</g>
			<g>

					<line fill="none" stroke="#B14E17" stroke-width="1.0871" stroke-linecap="round" stroke-linejoin="round" stroke-miterlimit="10" x1="114.158" y1="106.522" x2="105.686" y2="93.738"/>

					<line fill="none" stroke="#B14E17" stroke-width="1.4495" stroke-linecap="round" stroke-linejoin="round" stroke-miterlimit="10" stroke-dasharray="0,2.899" x1="80.175" y1="57.742" x2="74.774" y2="49.591"/>
			</g>
			<g>

					<line fill="none" stroke="#B14E17" stroke-width="1.4495" stroke-linecap="round" stroke-linejoin="round" stroke-miterlimit="10" stroke-dasharray="2.899" x1="118.936" y1="94.102" x2="111.072" y2="88.29"/>

					<line fill="none" stroke="#B14E17" stroke-width="1.0871" stroke-linecap="round" stroke-linejoin="round" stroke-miterlimit="10" x1="74.79" y1="63.19" x2="61.905" y2="53.667"/>
			</g>
			<g>

					<line fill="none" stroke="#B14E17" stroke-width="1.4495" stroke-linecap="round" stroke-linejoin="round" stroke-miterlimit="10" stroke-dasharray="0,2.899" x1="130.316" y1="86.072" x2="114.27" y2="81.328"/>

					<line fill="none" stroke="#B14E17" stroke-width="1.4495" stroke-linecap="round" stroke-linejoin="round" stroke-miterlimit="10" stroke-dasharray="2.899" x1="71.591" y1="70.152" x2="62.214" y2="67.379"/>
			</g>
			<g>

					<line fill="none" stroke="#B14E17" stroke-width="1.0871" stroke-linecap="round" stroke-linejoin="round" stroke-miterlimit="10" x1="124.654" y1="73.09" x2="114.895" y2="73.693"/>

					<line fill="none" stroke="#B14E17" stroke-width="1.0871" stroke-linecap="round" stroke-linejoin="round" stroke-miterlimit="10" x1="70.966" y1="77.788" x2="56.821" y2="78.66"/>
			</g>
			<g>

					<line fill="none" stroke="#B14E17" stroke-width="1.4495" stroke-linecap="round" stroke-linejoin="round" stroke-miterlimit="10" stroke-dasharray="2.899" x1="130.316" y1="58.707" x2="112.87" y2="66.304"/>

					<line fill="none" stroke="#B14E17" stroke-width="1.4495" stroke-linecap="round" stroke-linejoin="round" stroke-miterlimit="10" stroke-dasharray="0,2.899" x1="72.992" y1="85.176" x2="64.027" y2="89.08"/>
			</g>
			<path fill="#B14E17" d="M103.519,76.437c-0.576,4.319-4.273,7.652-8.752,7.652c-0.272,0-0.543-0.014-0.81-0.037
				c-0.228-0.021-0.451-0.051-0.673-0.089c-0.443-0.072-0.874-0.182-1.292-0.317c-0.457-0.153-0.897-0.34-1.318-0.562
				c-2.104-1.102-3.706-3.027-4.384-5.347c-0.048-0.162-0.09-0.326-0.129-0.491c-0.084-0.372-0.147-0.752-0.184-1.139
				c-0.027-0.28-0.04-0.562-0.04-0.849c0-0.229,0.009-0.456,0.027-0.68c0.237-3.15,2.131-5.839,4.814-7.2
				c-1.127,1.351-1.807,3.085-1.815,4.98v0.036c0,0.481,0.044,0.952,0.126,1.41c0.066,0.365,0.159,0.723,0.275,1.069
				c0.051,0.154,0.107,0.31,0.169,0.46c0.925,2.285,2.896,4.035,5.32,4.654c0.561,0.144,1.147,0.228,1.751,0.242
				c0.063,0.002,0.129,0.002,0.194,0.002c0.623,0,1.23-0.073,1.81-0.211h0.002c0.516-0.122,1.01-0.295,1.48-0.513
				C101.519,78.849,102.712,77.774,103.519,76.437z"/>
		</g>
		<g>
				<path fill="none" stroke="#B14E17" stroke-width="1.0871" stroke-linecap="round" stroke-linejoin="round" stroke-miterlimit="10" d="
				M127.048,29.742c0,0-0.742,4.962-12.129-0.365l-8.463-4.963l-11.575-3.677l8.274,3.865l8.086,4.22c0,0,7.166,3.866,3.678,5.151
				c0,0-3.678,1.473-16.726-5.151c0,0-7.721-0.542-9.56-1.096c0,0-7.421,2.437-13.425,3.621c-2.492,0.488-5.073,0.366-7.521-0.32
				c0,0-3.035,3.677-7.034,9.946c-3.987,6.27-8.949,15.142-12.815,25.521c0,0-13.413,52.558-44.649,49.246c0,0-1.041,0-1.927-3.19
				c-0.454-1.64-0.643-3.345-0.643-5.04V93.176c0-4.197,0.975-8.34,2.88-12.084C13.635,61.11,34.748,38.282,57.399,15.043
				c0,0,5.882-5.693,25.73-6.436l8.097-2.969c0.599-0.222,1.219-0.398,1.85-0.51l4.01-0.742l12.649-3.511
				c0.388-0.111,0.787-0.145,1.196-0.111l11.786,1.008c0.31,0.022,0.608,0.101,0.896,0.233l6.558,2.935c0,0,2.204,4.043-8.274,2.747
				l-10.102-0.177l-7.167,3.678l10.845,4.209c0.952,0.365,1.794,0.996,2.403,1.827c0.477,0.62,1.041,1.163,1.694,1.606l10.047,6.745
				c0.687,0.454,1.229,1.141,1.429,1.949C131.324,28.689,130.903,30.074,127.048,29.742z"/>

				<path fill="none" stroke="#B14E17" stroke-width="1.0871" stroke-linecap="round" stroke-linejoin="round" stroke-miterlimit="10" d="
				M81.884,17.249c0,0,2.113-0.919,4.687,0.827"/>

				<path fill="none" stroke="#B14E17" stroke-width="1.0871" stroke-linecap="round" stroke-linejoin="round" stroke-miterlimit="10" d="
				M85.375,12.011c0,0,3.676-1.699,7.396,0.598"/>

				<path fill="none" stroke="#B14E17" stroke-width="1.0871" stroke-linecap="round" stroke-linejoin="round" stroke-miterlimit="10" d="
				M98.331,14.033l6.873,1.91c2.521,0.7,4.854,1.959,6.823,3.683l1.207,1.056c0.316,0.277,0.663,0.511,1.042,0.697
				c2.291,1.129,10.977,5.54,12.767,8.366"/>

				<path fill="none" stroke="#B14E17" stroke-width="1.0871" stroke-linecap="round" stroke-linejoin="round" stroke-miterlimit="10" d="
				M85.008,9.255l6.633-2.233c1.019-0.343,2.122-0.314,3.12,0.082c1.239,0.491,2.872,1.171,3.569,1.6"/>

				<line fill="none" stroke="#B14E17" stroke-width="1.0871" stroke-linecap="round" stroke-linejoin="round" stroke-miterlimit="10" x1="94.885" y1="20.74" x2="91.669" y2="19.454"/>

				<path fill="none" stroke="#B14E17" stroke-width="1.0871" stroke-linecap="round" stroke-linejoin="round" stroke-miterlimit="10" d="
				M87.157,28.193c0,0-1.827-0.653-2.562-2.445"/>

				<path fill="none" stroke="#B14E17" stroke-width="1.0871" stroke-linecap="round" stroke-linejoin="round" stroke-miterlimit="10" d="
				M88.637,27.723c0,0-0.138-0.781-0.643-1.517"/>
			<path fill="#B14E17" d="M117.712,33.404c0.072,0.458-0.199,0.886-0.634,1.037c-0.382,0.133-0.796,0.045-1.176-0.05
				c-0.419-0.104-0.824-0.251-1.222-0.419c-0.811-0.344-1.563-0.802-2.271-1.324c-0.683-0.503-1.575-1.066-1.856-1.91
				c-0.295-0.889,0.431-1.963,1.422-1.654c0.219,0.068,0.328,0.228,0.365,0.402c0.871,0.163,1.705,0.559,2.44,1.045
				c0.783,0.518,1.486,1.146,2.173,1.784C117.282,32.62,117.639,32.939,117.712,33.404z"/>
			<path fill="#B14E17" d="M127.745,32.109c-0.491,0.273-1.189,0.271-1.736,0.247c-1.213-0.054-2.395-0.465-3.36-1.201
				c-0.831-0.634-1.764-1.629-1.942-2.7c-0.077-0.467,0.05-0.932,0.378-1.241c0.163-0.285,0.462-0.496,0.831-0.562
				c1.243-0.222,2.466,0.364,3.403,1.136c0.955,0.785,1.771,1.804,2.556,2.753c0.005,0.007,0.009,0.015,0.015,0.021
				c0.105,0.075,0.173,0.188,0.195,0.318C128.289,31.322,128.255,31.827,127.745,32.109z"/>
			<path fill="#B14E17" d="M132.365,28.648c-0.123-0.215-0.31-0.396-0.489-0.573c-0.539-0.763-1.229-1.406-1.959-1.989
				c-0.898-0.717-1.867-1.589-3.014-1.863c-1.045-0.25-2.349,0.24-2.243,1.511c0.095,1.154,1.07,2.155,1.947,2.816
				c0.969,0.729,2.139,1.17,3.318,1.42c0.565,0.12,1.28,0.327,1.846,0.127C132.362,29.886,132.693,29.218,132.365,28.648z"/>
			<path fill="#B14E17" d="M132.141,5.493c-0.04-0.058-0.095-0.097-0.144-0.143c-0.044-0.072-0.101-0.136-0.18-0.173
				c-1.007-0.476-2.015-0.947-3.047-1.365c-0.501-0.204-1.009-0.394-1.523-0.562c-0.465-0.151-0.979-0.349-1.475-0.32
				c-1.126,0.063-1.427,1.243-0.98,2.126c0.447,0.884,1.407,1.392,2.333,1.618c1.099,0.268,2.276,0.337,3.403,0.318
				c0.449-0.008,0.969,0.015,1.362-0.242C132.319,6.472,132.433,5.911,132.141,5.493z"/>

				<path fill="none" stroke="#B14E17" stroke-width="1.0871" stroke-linecap="round" stroke-linejoin="round" stroke-miterlimit="10" d="
				M98.514,24.16c0,0-0.643,1.082-0.734,1.817"/>

				<path fill="none" stroke="#B14E17" stroke-width="1.0871" stroke-linecap="round" stroke-linejoin="round" stroke-miterlimit="10" d="
				M106.371,27.723c0,0-1.219,1.194-1.379,2.664"/>

				<path fill="none" stroke="#B14E17" stroke-width="1.0871" stroke-linecap="round" stroke-linejoin="round" stroke-miterlimit="10" d="
				M107.906,18.636c0,0-0.984,0.909-0.893,2.104"/>

				<path fill="none" stroke="#B14E17" stroke-width="1.0871" stroke-linecap="round" stroke-linejoin="round" stroke-miterlimit="10" d="
				M117.901,25.068c0,0-1.103,0.997-1.194,2.102"/>

				<path fill="none" stroke="#B14E17" stroke-width="1.0871" stroke-linecap="round" stroke-linejoin="round" stroke-miterlimit="10" d="
				M113.169,15.641c0,0-0.965,1.183-1.103,1.9"/>

				<path fill="none" stroke="#B14E17" stroke-width="1.0871" stroke-linecap="round" stroke-linejoin="round" stroke-miterlimit="10" d="
				M122.632,22.165c0,0-0.872,0.872-0.918,1.607"/>
			<g>

					<path fill="none" stroke="#B14E17" stroke-width="1.0871" stroke-linecap="round" stroke-linejoin="round" stroke-miterlimit="10" d="
					M55.549,49.646l-3.224,6.313c-10.645,2.515-19.672-14.621-19.672-14.621l5.306-5.859C37.959,35.479,47.707,50.133,55.549,49.646
					z M39.167,41.682c0-1.008-0.819-1.828-1.827-1.828s-1.828,0.82-1.828,1.828s0.82,1.827,1.828,1.827S39.167,42.69,39.167,41.682z
					 M43.043,46.09c0-1.008-0.809-1.827-1.827-1.827c-1.008,0-1.828,0.819-1.828,1.827c0,1.02,0.82,1.839,1.828,1.839
					C42.235,47.929,43.043,47.11,43.043,46.09z M47.331,50.023c0-1.008-0.82-1.828-1.828-1.828s-1.827,0.82-1.827,1.828
					s0.819,1.827,1.827,1.827S47.331,51.031,47.331,50.023z M52.326,52.449c0-1.02-0.819-1.839-1.827-1.839
					c-1.009,0-1.828,0.819-1.828,1.839c0,1.008,0.819,1.827,1.828,1.827C51.506,54.276,52.326,53.457,52.326,52.449z"/>

					<path fill="none" stroke="#B14E17" stroke-width="1.0871" stroke-linecap="round" stroke-linejoin="round" stroke-miterlimit="10" d="
					M28.225,46.398c0,0,14.404,17.075,21.973,14.237l-1.149,2.753C38.37,64.63,26.19,48.779,26.19,48.779L28.225,46.398z"/>

					<path fill="none" stroke="#B14E17" stroke-width="1.0871" stroke-linecap="round" stroke-linejoin="round" stroke-miterlimit="10" d="
					M24.646,50.615c0,0,14.577,17.062,23.788,14.327l-0.9,2.682c-7.581,0.737-15.625-5.896-23.876-15.82L24.646,50.615z"/>
			</g>
		</g>
	</g>
</g>
</svg>
