<?xml version="1.0" encoding="utf-8"?>
<!-- Generator: Adobe Illustrator 16.0.0, SVG Export Plug-In . SVG Version: 6.00 Build 0)  -->
<!DOCTYPE svg PUBLIC "-//W3C//DTD SVG 1.1//EN" "http://www.w3.org/Graphics/SVG/1.1/DTD/svg11.dtd">
<svg version="1.1" id="Layer_1" xmlns="http://www.w3.org/2000/svg" xmlns:xlink="http://www.w3.org/1999/xlink" x="0px" y="0px"
	 width="98.686px" height="163.131px" viewBox="0 0 98.686 163.131" enable-background="new 0 0 98.686 163.131"
	 xml:space="preserve">
<g>
	<rect x="32.512" y="146.27" fill="#B14E17" width="40.709" height="0.5"/>
	<rect x="32.512" y="155.331" fill="#B14E17" width="41.667" height="0.5"/>
	<rect x="32.512" y="150.826" fill="#B14E17" width="41.348" height="1"/>
	<g>
		
			<rect x="88.903" y="126.08" transform="matrix(0.9779 0.2091 -0.2091 0.9779 31.4856 -15.5716)" fill="#B14E17" width="1" height="30.149"/>
		<g>
			<path fill="#B14E17" d="M86.517,153.367c0,0,0.671-3.249,3.762-4.012c3.087-0.761,5.57-0.663,5.57-0.663s-3.523,4.263-5.27,4.847
				C88.834,154.123,86.517,153.367,86.517,153.367z"/>
			<path fill="#B14E17" d="M86.435,152.889c0,0,0.874-3.2-1.535-5.281c-2.407-2.078-4.659-3.121-4.659-3.121s1.203,5.4,2.495,6.709
				C84.025,152.512,86.435,152.889,86.435,152.889z"/>
		</g>
		<g>
			<path fill="#B14E17" d="M89.354,141.542c0,0,0.672-3.246,3.759-4.009c3.089-0.762,5.573-0.665,5.573-0.665
				s-3.525,4.265-5.27,4.847C91.668,142.297,89.354,141.542,89.354,141.542z"/>
			<path fill="#B14E17" d="M89.057,141.477c0,0,0.873-3.198-1.532-5.279c-2.407-2.081-4.664-3.122-4.664-3.122
				s1.206,5.397,2.499,6.711C86.648,141.096,89.057,141.477,89.057,141.477z"/>
		</g>
		<circle fill="#B14E17" cx="93.432" cy="122.757" r="3.76"/>
	</g>
	<g>
		
			<rect x="-0.03" y="139.884" transform="matrix(0.2114 0.9774 -0.9774 0.2114 148.8975 96.2316)" fill="#B14E17" width="29.693" height="1"/>
		<g>
			<path fill="#B14E17" d="M17.924,152.783c0,0-0.804-3.221,1.65-5.246c2.452-2.025,4.73-3.018,4.73-3.018s-1.325,5.374-2.647,6.654
				C20.339,152.455,17.924,152.783,17.924,152.783z"/>
			<path fill="#B14E17" d="M17.112,152.957c0,0-0.601-3.261-3.673-4.092c-3.069-0.829-5.552-0.797-5.552-0.797
				s3.426,4.347,5.156,4.97C14.777,153.663,17.112,152.957,17.112,152.957z"/>
		</g>
		<g>
			<path fill="#B14E17" d="M15.354,140.896c0,0-0.804-3.217,1.649-5.242c2.451-2.023,4.732-3.016,4.732-3.016
				s-1.328,5.371-2.646,6.652C17.767,140.57,15.354,140.896,15.354,140.896z"/>
			<path fill="#B14E17" d="M14.541,141.069c0,0-0.599-3.258-3.669-4.092c-3.07-0.833-5.557-0.789-5.557-0.789
				s3.428,4.342,5.161,4.965C12.208,141.775,14.541,141.069,14.541,141.069z"/>
		</g>
		<path fill="#B14E17" d="M14.56,121.402c-0.44-2.028-2.439-3.32-4.47-2.882c-2.031,0.439-3.321,2.44-2.882,4.471
			c0.438,2.033,2.441,3.321,4.471,2.882C13.709,125.433,14.998,123.435,14.56,121.402z"/>
	</g>
	<g>
		<g>
			<circle fill="#B14E17" cx="50.493" cy="49.271" r="0.871"/>
			<circle fill="#B14E17" cx="50.493" cy="51.902" r="0.871"/>
			<circle fill="#B14E17" cx="50.493" cy="54.535" r="0.871"/>
			<path fill="#B14E17" d="M51.364,57.165c0,0.483-0.39,0.874-0.87,0.874c-0.481,0-0.872-0.391-0.872-0.874
				c0-0.479,0.391-0.869,0.872-0.869C50.975,56.296,51.364,56.686,51.364,57.165z"/>
			<circle fill="#B14E17" cx="50.493" cy="59.799" r="0.871"/>
			<circle fill="#B14E17" cx="50.493" cy="62.431" r="0.871"/>
			<circle fill="#B14E17" cx="50.493" cy="65.063" r="0.871"/>
			<circle fill="#B14E17" cx="50.493" cy="67.695" r="0.871"/>
			<circle fill="#B14E17" cx="50.493" cy="70.327" r="0.871"/>
			<circle fill="#B14E17" cx="50.493" cy="72.96" r="0.871"/>
			<circle fill="#B14E17" cx="50.493" cy="75.592" r="0.871"/>
			<circle fill="#B14E17" cx="50.493" cy="78.224" r="0.871"/>
		</g>
		<g>
			<circle fill="#B14E17" cx="50.493" cy="17.372" r="0.871"/>
			<circle fill="#B14E17" cx="50.493" cy="20.004" r="0.871"/>
			<circle fill="#B14E17" cx="50.493" cy="22.635" r="0.871"/>
			<circle fill="#B14E17" cx="50.493" cy="25.266" r="0.871"/>
			<circle fill="#B14E17" cx="50.493" cy="27.899" r="0.871"/>
			<circle fill="#B14E17" cx="50.493" cy="30.53" r="0.871"/>
			<circle fill="#B14E17" cx="50.493" cy="33.164" r="0.871"/>
			<circle fill="#B14E17" cx="50.493" cy="35.796" r="0.871"/>
			<circle fill="#B14E17" cx="50.493" cy="38.428" r="0.871"/>
			<circle fill="#B14E17" cx="50.493" cy="41.06" r="0.871"/>
			<circle fill="#B14E17" cx="50.493" cy="43.691" r="0.871"/>
			<circle fill="#B14E17" cx="50.493" cy="46.324" r="0.871"/>
		</g>
	</g>
	<g>
		<g>
			<circle fill="#B14E17" cx="34.424" cy="50.744" r="0.871"/>
			<circle fill="#B14E17" cx="34.424" cy="53.375" r="0.871"/>
			<path fill="#B14E17" d="M35.295,56.01c0,0.481-0.389,0.87-0.87,0.87c-0.482,0-0.873-0.389-0.873-0.87
				c0-0.483,0.39-0.873,0.873-0.873C34.907,55.137,35.295,55.526,35.295,56.01z"/>
			<path fill="#B14E17" d="M35.295,58.638c0,0.483-0.389,0.875-0.87,0.875c-0.482,0-0.873-0.392-0.873-0.875
				c0-0.479,0.39-0.87,0.873-0.87C34.907,57.768,35.295,58.158,35.295,58.638z"/>
			<circle fill="#B14E17" cx="34.424" cy="61.271" r="0.871"/>
			<circle fill="#B14E17" cx="34.424" cy="63.903" r="0.871"/>
			<circle fill="#B14E17" cx="34.424" cy="66.537" r="0.871"/>
			<circle fill="#B14E17" cx="34.424" cy="69.169" r="0.871"/>
			<circle fill="#B14E17" cx="34.424" cy="71.801" r="0.871"/>
			<path fill="#B14E17" d="M35.295,74.431c0,0.483-0.389,0.874-0.87,0.874c-0.482,0-0.873-0.391-0.873-0.874
				c0-0.479,0.39-0.871,0.873-0.871C34.907,73.56,35.295,73.951,35.295,74.431z"/>
			<circle fill="#B14E17" cx="34.424" cy="77.063" r="0.871"/>
			<circle fill="#B14E17" cx="34.424" cy="79.697" r="0.871"/>
		</g>
		<g>
			<circle fill="#B14E17" cx="34.424" cy="18.844" r="0.871"/>
			<circle fill="#B14E17" cx="34.424" cy="21.477" r="0.871"/>
			<circle fill="#B14E17" cx="34.424" cy="24.108" r="0.871"/>
			<circle fill="#B14E17" cx="34.424" cy="26.739" r="0.871"/>
			<circle fill="#B14E17" cx="34.424" cy="29.371" r="0.871"/>
			<circle fill="#B14E17" cx="34.424" cy="32.003" r="0.871"/>
			<circle fill="#B14E17" cx="34.424" cy="34.637" r="0.871"/>
			<circle fill="#B14E17" cx="34.424" cy="37.269" r="0.871"/>
			<path fill="#B14E17" d="M35.295,39.902c0,0.48-0.389,0.869-0.87,0.869c-0.482,0-0.873-0.389-0.873-0.869
				c0-0.483,0.39-0.875,0.873-0.875C34.907,39.028,35.295,39.419,35.295,39.902z"/>
			<circle fill="#B14E17" cx="34.424" cy="42.532" r="0.871"/>
			<circle fill="#B14E17" cx="34.424" cy="45.164" r="0.871"/>
			<circle fill="#B14E17" cx="34.424" cy="47.795" r="0.871"/>
		</g>
	</g>
	<g>
		<g>
			<circle fill="#B14E17" cx="66.242" cy="51.346" r="0.871"/>
			<circle fill="#B14E17" cx="66.242" cy="53.979" r="0.871"/>
			<circle fill="#B14E17" cx="66.242" cy="56.611" r="0.871"/>
			<circle fill="#B14E17" cx="66.242" cy="59.241" r="0.871"/>
			<circle fill="#B14E17" cx="66.242" cy="61.874" r="0.871"/>
			<circle fill="#B14E17" cx="66.242" cy="64.506" r="0.871"/>
			<path fill="#B14E17" d="M67.113,67.141c0,0.479-0.389,0.869-0.87,0.869c-0.483,0-0.872-0.39-0.872-0.869
				c0-0.485,0.389-0.873,0.872-0.873C66.725,66.268,67.113,66.655,67.113,67.141z"/>
			<circle fill="#B14E17" cx="66.242" cy="69.771" r="0.871"/>
			<circle fill="#B14E17" cx="66.242" cy="72.403" r="0.871"/>
			<path fill="#B14E17" d="M67.113,75.033c0,0.483-0.389,0.875-0.87,0.875c-0.483,0-0.872-0.392-0.872-0.875
				c0-0.479,0.389-0.873,0.872-0.873C66.725,74.16,67.113,74.554,67.113,75.033z"/>
			<circle fill="#B14E17" cx="66.242" cy="77.668" r="0.871"/>
			<path fill="#B14E17" d="M67.113,80.301c0,0.48-0.389,0.87-0.87,0.87c-0.483,0-0.872-0.39-0.872-0.87
				c0-0.483,0.389-0.873,0.872-0.873C66.725,79.428,67.113,79.817,67.113,80.301z"/>
		</g>
		<g>
			<circle fill="#B14E17" cx="66.242" cy="19.447" r="0.871"/>
			<circle fill="#B14E17" cx="66.242" cy="22.079" r="0.871"/>
			<circle fill="#B14E17" cx="66.242" cy="24.71" r="0.871"/>
			<circle fill="#B14E17" cx="66.242" cy="27.341" r="0.871"/>
			<circle fill="#B14E17" cx="66.242" cy="29.974" r="0.871"/>
			<circle fill="#B14E17" cx="66.242" cy="32.605" r="0.871"/>
			<circle fill="#B14E17" cx="66.242" cy="35.238" r="0.871"/>
			<circle fill="#B14E17" cx="66.242" cy="37.872" r="0.871"/>
			<path fill="#B14E17" d="M67.113,40.504c0,0.479-0.389,0.87-0.87,0.87c-0.483,0-0.872-0.391-0.872-0.87
				c0-0.484,0.389-0.872,0.872-0.872C66.725,39.632,67.113,40.02,67.113,40.504z"/>
			<circle fill="#B14E17" cx="66.242" cy="43.134" r="0.871"/>
			<circle fill="#B14E17" cx="66.242" cy="45.766" r="0.871"/>
			<circle fill="#B14E17" cx="66.242" cy="48.398" r="0.871"/>
		</g>
	</g>
	<path fill="#B14E17" d="M75.051,163.131H31.618c-0.14,0-0.273-0.059-0.368-0.161s-0.142-0.24-0.131-0.38
		c1.094-13.373,1.952-35.223-0.401-36.919c-7.59-5.472-10.551-14.248-13.979-24.41C13.628,92.037,10.102,81.584,2.4,70.797
		c-2.472-3.465-2.598-5.962-2.268-7.446c0.303-1.365,1.134-2.491,2.34-3.172c0.841-0.474,1.76-0.714,2.732-0.714
		c7.678,0,17.261,15.241,20.015,19.912c0.655,1.109,1.153,2.091,1.592,2.957c0.131,0.26,0.256,0.505,0.375,0.734V13.411
		c0-4.462,3.104-8.092,6.918-8.092c3.424,0,6.366,2.991,6.843,6.958l0.003,58.832c0,0.703,0.571,1.275,1.272,1.275
		c0.702,0,1.273-0.572,1.273-1.275V54.093c0.042-7.637,0.042-17.759,0-30.089L43.416,6.406C43.416,2.873,46.288,0,49.818,0
		c3.531,0,6.403,2.873,6.403,6.403v62.633c0,0.867,0.705,1.572,1.572,1.572c0.865,0,1.57-0.705,1.57-1.572
		c0.001-0.421,0.065-42.204,0-57.694c-0.004-1.042,0.424-2.026,1.238-2.845c1.18-1.185,3.068-1.921,4.93-1.921
		c3.53,0,6.402,2.872,6.402,6.403v56.916c0,0.382,0.313,0.693,0.695,0.693s0.694-0.312,0.694-0.693
		c0.001-0.24,0.065-23.975,0-33.004c-0.005-0.683,0.272-1.325,0.801-1.857c0.866-0.873,2.413-1.437,3.939-1.437
		c2.821,0,5.116,2.296,5.116,5.119c0.007,0.59,0.631,59.647,0.584,67.143c-0.061,9.749-6.406,14.75-9.816,17.437
		c-0.844,0.664-1.799,1.417-1.858,1.696c-0.363,4.7,3.421,37.255,3.459,37.583c0.017,0.142-0.028,0.283-0.123,0.39
		C75.33,163.07,75.193,163.131,75.051,163.131z M32.16,162.131H74.49c-0.52-4.49-3.746-32.71-3.397-37.224
		c0.052-0.679,0.827-1.29,2.235-2.398c3.277-2.583,9.379-7.39,9.436-16.657c0.047-7.488-0.577-66.536-0.584-67.132
		c0-2.276-1.846-4.124-4.116-4.124c-1.254,0-2.552,0.458-3.229,1.141c-0.342,0.344-0.514,0.73-0.511,1.146
		c0.065,9.034,0.001,32.774,0,33.012c0,0.933-0.76,1.692-1.694,1.692c-0.934,0-1.695-0.76-1.695-1.693V12.979
		c0-2.979-2.424-5.403-5.402-5.403c-1.58,0-3.236,0.639-4.221,1.627c-0.623,0.626-0.95,1.364-0.947,2.135
		c0.065,15.494,0.001,57.279,0,57.7c0,1.417-1.152,2.571-2.57,2.571s-2.572-1.154-2.572-2.572V6.403C55.221,3.424,52.797,1,49.818,1
		s-5.402,2.424-5.402,5.403L44.498,24c0.042,12.333,0.042,22.458,0,30.096v17.013c0,1.255-1.02,2.275-2.273,2.275
		c-1.253,0-2.272-1.021-2.272-2.275V12.336c-0.413-3.405-2.928-6.017-5.846-6.017c-3.263,0-5.918,3.181-5.918,7.092v71.486
		c0,0.216-0.138,0.407-0.343,0.475c-0.204,0.07-0.429-0.003-0.558-0.176c-0.452-0.607-0.855-1.402-1.366-2.409
		c-0.433-0.853-0.923-1.819-1.562-2.901c-2.686-4.556-12.006-19.42-19.154-19.42c-0.798,0-1.552,0.197-2.241,0.585
		c-0.969,0.547-1.611,1.417-1.855,2.518c-0.286,1.286-0.153,3.483,2.105,6.648c7.788,10.907,11.339,21.437,14.473,30.725
		c3.373,9.999,6.286,18.635,13.616,23.92C34.748,127.344,32.593,156.669,32.16,162.131z"/>
	<circle fill="#B14E17" cx="50.058" cy="10.813" r="2.868"/>
	<circle fill="#B14E17" cx="66.242" cy="13.679" r="2.867"/>
	<circle fill="#B14E17" cx="34.424" cy="13.347" r="2.867"/>
	<g>
		<path fill="#B14E17" d="M51.359,108.575c-13.057,0-21.53-11.044-21.614-11.155l-0.259-0.345l0.302-0.307
			c0.438-0.445,10.856-10.896,22.113-10.896c11.231,0,22.479,9.391,22.952,9.79l0.336,0.284l-0.238,0.369
			C74.871,96.438,66.842,108.575,51.359,108.575z M30.82,97.16c1.528,1.835,9.275,10.415,20.54,10.415
			c13.434,0,21.039-9.442,22.494-11.437c-2.006-1.595-12.17-9.267-21.952-9.267C42.12,86.872,32.655,95.411,30.82,97.16z"/>
		<path fill="#B14E17" d="M52.338,104.847c-4.213,0-7.64-3.427-7.64-7.639c0-4.214,3.427-7.642,7.64-7.642s7.641,3.428,7.641,7.642
			C59.979,101.42,56.551,104.847,52.338,104.847z M52.338,90.566c-3.662,0-6.64,2.979-6.64,6.642c0,3.66,2.979,6.639,6.64,6.639
			c3.662,0,6.641-2.979,6.641-6.639C58.979,93.546,56,90.566,52.338,90.566z"/>
		<g>
			<rect x="52.088" y="89.962" fill="#B14E17" width="0.5" height="14.277"/>
			<rect x="45.198" y="96.85" fill="#B14E17" width="14.281" height="0.5"/>
			
				<rect x="45.202" y="96.849" transform="matrix(0.6476 0.762 -0.762 0.6476 92.4277 -5.6651)" fill="#B14E17" width="14.274" height="0.5"/>
			
				<rect x="52.088" y="90.079" transform="matrix(0.7264 0.6873 -0.6873 0.7264 81.06 -9.4025)" fill="#B14E17" width="0.5" height="14.043"/>
		</g>
		<circle fill="#B14E17" cx="52.338" cy="97.006" r="1.957"/>
		<path fill="#B14E17" d="M28.759,109.912c-0.11,0-0.222-0.036-0.314-0.111c-0.214-0.174-0.248-0.489-0.073-0.704l4.357-5.372
			c0.174-0.215,0.488-0.248,0.703-0.074c0.214,0.174,0.248,0.489,0.073,0.704l-4.357,5.372
			C29.049,109.849,28.905,109.912,28.759,109.912z"/>
		<path fill="#B14E17" d="M33.117,115.149c-0.081,0-0.163-0.02-0.239-0.062c-0.242-0.132-0.332-0.437-0.199-0.679l4.333-7.924
			c0.132-0.242,0.436-0.332,0.678-0.198c0.242,0.132,0.332,0.437,0.199,0.679l-4.333,7.924
			C33.465,115.056,33.293,115.149,33.117,115.149z"/>
		<path fill="#B14E17" d="M37.45,121.551c-0.061,0-0.123-0.011-0.183-0.034c-0.257-0.102-0.384-0.392-0.283-0.648l4.291-10.931
			c0.1-0.258,0.391-0.384,0.648-0.283c0.257,0.102,0.384,0.392,0.283,0.648l-4.291,10.931
			C37.838,121.431,37.649,121.551,37.45,121.551z"/>
		<path fill="#B14E17" d="M43.692,125.715c-0.037,0-0.074-0.004-0.111-0.013c-0.27-0.062-0.438-0.329-0.376-0.599l3.194-14.038
			c0.061-0.269,0.328-0.439,0.598-0.376c0.27,0.062,0.438,0.329,0.376,0.599l-3.194,14.038
			C44.126,125.558,43.92,125.715,43.692,125.715z"/>
		<path fill="#B14E17" d="M76.358,109.934c-0.146,0-0.29-0.063-0.389-0.185l-4.358-5.372c-0.174-0.215-0.142-0.529,0.072-0.704
			c0.215-0.175,0.53-0.14,0.703,0.073l4.359,5.372c0.174,0.215,0.141,0.529-0.073,0.704
			C76.58,109.897,76.469,109.934,76.358,109.934z"/>
		<path fill="#B14E17" d="M72,115.174c-0.178,0-0.35-0.094-0.439-0.26l-4.332-7.927c-0.133-0.243-0.043-0.547,0.199-0.679
			c0.242-0.133,0.547-0.044,0.679,0.198l4.331,7.927c0.133,0.243,0.043,0.547-0.199,0.679C72.162,115.154,72.08,115.174,72,115.174z
			"/>
		<path fill="#B14E17" d="M67.668,121.571c-0.2,0-0.389-0.12-0.466-0.317l-4.29-10.928c-0.102-0.257,0.025-0.547,0.282-0.648
			c0.258-0.101,0.548,0.025,0.647,0.283l4.291,10.928c0.102,0.257-0.025,0.547-0.283,0.648
			C67.79,121.561,67.729,121.571,67.668,121.571z"/>
		<path fill="#B14E17" d="M61.424,125.738c-0.228,0-0.434-0.157-0.486-0.389l-3.193-14.039c-0.061-0.27,0.107-0.538,0.377-0.599
			c0.267-0.066,0.537,0.107,0.599,0.376l3.192,14.039c0.062,0.27-0.107,0.538-0.377,0.599
			C61.498,125.734,61.461,125.738,61.424,125.738z"/>
		<path fill="#B14E17" d="M52.338,130.484c-0.277,0-0.5-0.224-0.5-0.5v-18.81c0-0.276,0.223-0.5,0.5-0.5c0.275,0,0.5,0.224,0.5,0.5
			v18.81C52.838,130.261,52.613,130.484,52.338,130.484z"/>
		<circle fill="#B14E17" cx="52.338" cy="132.397" r="3.387"/>
	</g>
</g>
</svg>
