<?xml version="1.0" encoding="utf-8"?>
<!-- Generator: Adobe Illustrator 16.0.0, SVG Export Plug-In . SVG Version: 6.00 Build 0)  -->
<!DOCTYPE svg PUBLIC "-//W3C//DTD SVG 1.1//EN" "http://www.w3.org/Graphics/SVG/1.1/DTD/svg11.dtd">
<svg version="1.1" id="Capa_1" xmlns="http://www.w3.org/2000/svg" xmlns:xlink="http://www.w3.org/1999/xlink" x="0px" y="0px"
	 width="609.5px" height="701.379px" viewBox="-97.5 -189.379 609.5 701.379" enable-background="new -97.5 -189.379 609.5 701.379"
	 xml:space="preserve">
<g>
	<path fill="#303131" d="M218.12,44.492c0-5.752,4.667-10.419,10.419-10.419c5.741,0,10.419,4.667,10.419,10.419
		c0,5.741-4.678,10.419-10.419,10.419C222.787,54.911,218.12,50.232,218.12,44.492z M151.591,175.601
		c0.088-0.138,0.18-0.274,0.273-0.407C151.741,175.359,151.655,175.499,151.591,175.601z M169.143,175.601
		c-0.064-0.102-0.152-0.241-0.274-0.407C168.963,175.327,169.055,175.462,169.143,175.601z M33.253,34.073
		c-17.264,0-31.258,13.994-31.258,31.257v35.131l-88.488,88.49c-12.188,12.188-12.188,32.018,0,44.206l88.488,88.487V446.67
		c0,17.264,13.994,31.258,31.258,31.258h125.025l24.932,24.932c12.142,12.143,32.086,12.118,44.204,0l24.932-24.932h35.133
		c17.264,0,31.257-13.994,31.257-31.258v-35.133l88.489-88.488c12.187-12.188,12.187-32.018,0-44.205l-88.489-88.487V65.33
		c0-17.264-13.994-31.257-31.258-31.257h-13.097c-5.979,0-10.808,5.076-10.395,11.142c0.378,5.528,5.228,9.696,10.769,9.696h12.724
		c5.73,0.01,10.409,4.688,10.419,10.419v381.34c-0.01,5.73-4.688,10.409-10.419,10.419H33.253
		c-5.73-0.01-10.409-4.688-10.419-10.419V65.33c0.01-5.73,4.688-10.409,10.419-10.419h148.389h0.01c4.453,0,8.531-2.784,9.881-7.028
		c2.287-7.189-3.043-13.811-9.881-13.811h-19.198L137.522,9.141c-12.142-12.143-32.086-12.118-44.204,0L68.386,34.073H33.253z
		 M132.985,34.073H97.856l10.196-10.196c4.063-4.062,10.673-4.063,14.735,0L132.985,34.073z M318.736,278.766l22.184,22.182
		l-22.184,22.182V278.766z M318.736,219.826l73.754,73.752c4.063,4.063,4.063,10.674,0,14.735l-73.754,73.753v-29.468l44.285-44.284
		c4.068-4.07,4.068-10.667,0-14.736l-44.285-44.284V219.826z M187.749,477.928h35.128l-10.196,10.195
		c-4.063,4.062-10.673,4.063-14.735,0L187.749,477.928z M1.995,233.234l-22.182-22.182l22.182-22.181V233.234z M-71.759,203.686
		l73.754-73.754V159.4l-44.284,44.284c-4.068,4.07-4.068,10.667,0,14.736l44.284,44.285v29.469l-73.754-73.753
		C-75.82,214.359-75.82,207.748-71.759,203.686z"/>
</g>
<g>
	<path fill="#B14E17" d="M245.89-29.322c1.399,0.809,2.926,1.191,4.432,1.191c3.069,0,6.055-1.592,7.697-4.439l59.104-102.381
		c2.454-4.247,0.998-9.678-3.248-12.129c-4.247-2.451-9.681-0.994-12.129,3.249L242.641-41.45
		C240.19-37.204,241.641-31.773,245.89-29.322z"/>
	<path fill="#B14E17" d="M370.52,74.296c1.506,0,3.031-0.384,4.431-1.193l93.496-70.944c4.245-2.451,5.702-7.883,3.249-12.128
		c-2.449-4.246-7.877-5.706-12.129-3.249L366.07,57.726c-4.246,2.451-5.703,7.882-3.248,12.128
		C364.467,72.704,367.449,74.296,370.52,74.296z"/>
	<path fill="#B14E17" d="M503.12,208.869h-79.737c-4.904,0-8.879,3.974-8.879,8.879c0,4.906,3.975,8.88,8.879,8.88h79.737
		c4.905,0,8.88-3.974,8.88-8.88C512,212.843,508.025,208.869,503.12,208.869z"/>
	<path fill="#B14E17" d="M115.746-51.405c4.905,0,8.88-3.977,8.88-8.879V-178.5c0-4.902-3.975-8.879-8.88-8.879
		s-8.88,3.978-8.88,8.879v118.215C106.866-55.382,110.841-51.405,115.746-51.405z"/>
</g>
</svg>
